<?xml version="1.0" encoding="utf-8"?>
<!-- Generator: Adobe Illustrator 15.1.0, SVG Export Plug-In . SVG Version: 6.00 Build 0)  -->
<!DOCTYPE svg PUBLIC "-//W3C//DTD SVG 1.1//EN" "http://www.w3.org/Graphics/SVG/1.1/DTD/svg11.dtd">
<svg version="1.1" id="Layer_1" xmlns="http://www.w3.org/2000/svg" xmlns:xlink="http://www.w3.org/1999/xlink" x="0px" y="0px"
	 width="84px" height="84px" viewBox="0 0 84 84" enable-background="new 0 0 84 84" xml:space="preserve">
<polygon fill="#3A3A3A" points="1.424,20.583 1.454,20.631 1.454,20.583 "/>
<g>
	<polygon fill="#3F3F3F" points="132.271,33.027 128.855,27.668 125.163,27.668 132.271,38.891 139.059,27.668 135.367,27.668 	"/>
	<polygon fill="#3F3F3F" points="123.564,25.098 132.271,25.102 140.656,25.098 142.331,22.4 132.109,22.4 121.889,22.4 	"/>
</g>
<path fill="#3A3A3A" d="M1.1,9.044L42.029,75L83.004,9H1.1V9.044z M42.028,62.457L21.541,30.073h10.641l9.846,15.467l8.92-15.467
	h10.641L42.028,62.457z M71.019,14.884l-4.823,7.778l-24.167,0.016l-25.087-0.016l-4.839-7.778h29.463H71.019z"/>
</svg>
