<?xml version="1.0" encoding="utf-8"?>
<!-- Generator: Adobe Illustrator 15.1.0, SVG Export Plug-In . SVG Version: 6.00 Build 0)  -->
<!DOCTYPE svg PUBLIC "-//W3C//DTD SVG 1.1//EN" "http://www.w3.org/Graphics/SVG/1.1/DTD/svg11.dtd">
<svg version="1.1" id="Layer_1" xmlns="http://www.w3.org/2000/svg" xmlns:xlink="http://www.w3.org/1999/xlink" x="0px" y="0px"
	 width="120px" height="200px" viewBox="0 0 120 200" enable-background="new 0 0 120 200" xml:space="preserve">
<path fill="#868179" d="M120,191c0,4.971-4.029,9-9,9H9c-4.971,0-9-4.029-9-9V9c0-4.971,4.029-9,9-9h102c4.971,0,9,4.029,9,9V191z"
	/>
<g>
	<rect x="26" y="10" fill="#D7D0C4" width="27" height="2"/>
	<g>
		<rect x="68" y="10" fill="#D7D0C4" width="27" height="2"/>
	</g>
</g>
<circle fill="#D7D0C4" cx="81.667" cy="68.667" r="15.667"/>
<circle fill="#938F8A" cx="39.667" cy="68.667" r="15.667"/>
<g>
	<rect x="50" y="104" fill="#D7D0C4" width="21" height="2"/>
</g>
<g>
	<rect x="44" y="109" fill="#D7D0C4" width="33" height="2"/>
</g>
<g>
	<rect x="39" y="114" fill="#D7D0C4" width="43" height="2"/>
</g>
<path fill="none" stroke="#D7D0C4" d="M78,110"/>
<path fill="none" stroke="#D7D0C4" d="M44,114"/>
<line opacity="0.2" fill="none" stroke="#FFFFFF" stroke-miterlimit="10" x1="0" y1="21.5" x2="120" y2="21.5"/>
<line fill="none" stroke="#D7D0C4" stroke-width="2" stroke-miterlimit="10" x1="31" y1="185" x2="91" y2="185"/>
<g>
	<g>
		<path fill="#F2C37E" stroke="#F2C37E" d="M54.5,154.625c0,1.588-1.287,2.875-2.875,2.875h-18.25c-1.588,0-2.875-1.287-2.875-2.875
			v-0.25c0-1.588,1.287-2.875,2.875-2.875h18.25c1.588,0,2.875,1.287,2.875,2.875V154.625z"/>
		<path fill="none" stroke="#FFFFFF" d="M88.5,154.625c0,1.588-1.287,2.875-2.875,2.875h-18.25c-1.588,0-2.875-1.287-2.875-2.875
			v-0.25c0-1.588,1.287-2.875,2.875-2.875h18.25c1.588,0,2.875,1.287,2.875,2.875V154.625z"/>
	</g>
	<line fill="none" stroke="#FFFFFF" x1="72" y1="154.5" x2="82" y2="154.5"/>
</g>
</svg>
