<?xml version="1.0" encoding="utf-8"?>
<!-- Generator: Adobe Illustrator 15.1.0, SVG Export Plug-In . SVG Version: 6.00 Build 0)  -->
<!DOCTYPE svg PUBLIC "-//W3C//DTD SVG 1.1//EN" "http://www.w3.org/Graphics/SVG/1.1/DTD/svg11.dtd">
<svg version="1.1" id="Layer_1" xmlns="http://www.w3.org/2000/svg" xmlns:xlink="http://www.w3.org/1999/xlink" x="0px" y="0px"
	 width="516px" height="328.171px" viewBox="0 0 516 328.171" enable-background="new 0 0 516 328.171" xml:space="preserve">
<g>
	<path fill="#FFFFFF" d="M516,309.87c0,10.198-8.267,18.465-18.465,18.465H18.465C8.267,328.335,0,320.068,0,309.87V18.8
		C0,8.602,8.267,0.335,18.465,0.335h479.07C507.733,0.335,516,8.602,516,18.8V309.87z"/>
</g>
<g>
	<polygon fill="#D1D3D4" points="199.706,27.335 193.333,38.374 186.959,27.335 	"/>
	<rect x="226" y="32.335" fill="#D1D3D4" width="27" height="3"/>
	<rect x="266" y="32.335" fill="#D1D3D4" width="27" height="3"/>
	<rect x="306" y="32.335" fill="#D1D3D4" width="26" height="3"/>
</g>
<line opacity="0.89" fill="none" stroke="#F1F2F2" x1="0" y1="57.835" x2="516" y2="57.835"/>
<rect x="208" y="91.335" fill="#F1F2F2" width="112" height="68"/>
<rect x="208" y="177.335" fill="#D1D3D4" width="112" height="2"/>
<rect x="220" y="184.335" fill="#D1D3D4" width="88" height="2"/>
<rect x="214" y="190.335" fill="#D1D3D4" width="100" height="2"/>
<rect x="217" y="197.335" fill="#D1D3D4" width="95" height="2"/>
<rect x="220" y="222.335" fill="#D1D3D4" width="90" height="2"/>
<rect x="226" y="228.335" fill="#D1D3D4" width="78" height="2"/>
<rect x="235" y="235.335" fill="#D1D3D4" width="60" height="2"/>
<rect x="225" y="203.335" fill="#D1D3D4" width="79" height="2"/>
<g>
	<path fill="#00AEEF" d="M261,264.835c0,2.475-2.25,4.5-5,4.5h-25c-2.75,0-5-2.025-5-4.5s2.25-4.5,5-4.5h25
		C258.75,260.335,261,262.36,261,264.835z"/>
</g>
<g>
	<path fill="none" stroke="#00AEEF" stroke-miterlimit="10" d="M306,265.335c0,2.475-2.25,4.5-5,4.5h-25c-2.75,0-5-2.025-5-4.5
		s2.25-4.5,5-4.5h25C303.75,260.835,306,262.86,306,265.335z"/>
</g>
</svg>
