<?xml version="1.0" encoding="utf-8"?>
<!-- Generator: Adobe Illustrator 15.1.0, SVG Export Plug-In . SVG Version: 6.00 Build 0)  -->
<!DOCTYPE svg PUBLIC "-//W3C//DTD SVG 1.1//EN" "http://www.w3.org/Graphics/SVG/1.1/DTD/svg11.dtd">
<svg version="1.1" id="Layer_1" xmlns="http://www.w3.org/2000/svg" xmlns:xlink="http://www.w3.org/1999/xlink" x="0px" y="0px"
	 width="516px" height="328.171px" viewBox="0 0 516 328.171" enable-background="new 0 0 516 328.171" xml:space="preserve">
<path fill="#B0C4D9" d="M516,318.207c0,5.502-4.478,9.965-10,9.965H10c-5.523,0-10-4.463-10-9.965V10.3
	c0-5.503,4.477-9.965,10-9.965h496c5.522,0,10,4.461,10,9.965V318.207z"/>
<path opacity="0.89" fill="none" stroke="#F1F2F2" enable-background="new    " d="M516,57.835"/>
<path opacity="0.89" fill="none" stroke="#F1F2F2" enable-background="new    " d="M0,57.835"/>
<rect x="111" y="23.335" fill="#F9F9F9" width="345" height="13"/>
<path fill="#9EACBC" d="M0,44.835v-35c0-5.523,4.479-10,10-10l496,0c5.523,0,10,4.477,10,10v35H0z"/>
<g>
	<rect x="200.75" y="21.085" opacity="0.8" fill="#FFFFFF" enable-background="new    " width="114.5" height="4.5"/>
</g>
<g>
	<circle opacity="0.8" fill="#FFFFFF" enable-background="new    " cx="242.25" cy="296.085" r="10.25"/>
	<circle opacity="0.8" fill="#FFFFFF" enable-background="new    " cx="273.75" cy="296.085" r="10.25"/>
</g>
<g>
	<circle fill="#FFFFFF" cx="217.25" cy="178.252" r="81.834"/>
	<circle fill="#9EACBC" cx="349.75" cy="211.252" r="30.834"/>
</g>
<rect x="171" y="176.251" fill="#9EACBC" width="92.5" height="4"/>
<rect x="336" y="213.336" fill="#FFFFFF" width="27.5" height="4"/>
<rect x="336" y="205.169" fill="#FFFFFF" width="27.5" height="4"/>
<rect x="189.083" y="189.085" fill="#9EACBC" width="56.334" height="4"/>
<rect x="189.083" y="163.418" fill="#9EACBC" width="56.334" height="4"/>
</svg>
