<?xml version="1.0" encoding="utf-8"?>
<!-- Generator: Adobe Illustrator 15.1.0, SVG Export Plug-In . SVG Version: 6.00 Build 0)  -->
<!DOCTYPE svg PUBLIC "-//W3C//DTD SVG 1.1//EN" "http://www.w3.org/Graphics/SVG/1.1/DTD/svg11.dtd">
<svg version="1.1" id="Layer_1" xmlns="http://www.w3.org/2000/svg" xmlns:xlink="http://www.w3.org/1999/xlink" x="0px" y="0px"
	 width="120px" height="200px" viewBox="0 0 120 200" enable-background="new 0 0 120 200" xml:space="preserve">
<path fill="#FFFFFF" d="M120,191c0,4.971-4.029,9-9,9H9c-4.971,0-9-4.029-9-9V9c0-4.971,4.029-9,9-9h102c4.971,0,9,4.029,9,9V191z"
	/>
<path fill="#91BAC1" d="M120,27H0V9c0-4.971,4.029-9,9-9h102c4.971,0,9,4.029,9,9V27z"/>
<rect x="48" y="13" fill="#FFFFFF" width="25" height="2"/>
<g>
	<rect x="13" y="52" fill="#F4F4F4" width="32" height="32"/>
	<rect x="45" y="52" fill="#FFFFFF" width="31" height="32"/>
	<rect x="76" y="52" fill="#F4F4F4" width="32" height="32"/>
	<rect x="76" y="84" fill="#FFFFFF" width="32" height="31"/>
	<rect x="76" y="115" fill="#F4F4F4" width="32" height="32"/>
	<rect x="45" y="115" fill="#FFFFFF" width="31" height="32"/>
	<rect x="45" y="84" fill="#F4F4F4" width="31" height="31"/>
	<rect x="13" y="84" fill="#FFFFFF" width="32" height="31"/>
	<rect x="13" y="115" fill="#F4F4F4" width="32" height="32"/>
</g>
<g>
	<circle fill="#C9E9F0" cx="50.297" cy="174" r="6.469"/>
	<circle fill="#C9E9F0" cx="69.703" cy="174" r="6.469"/>
</g>
</svg>
