<?xml version="1.0" encoding="utf-8"?>
<!-- Generator: Adobe Illustrator 15.1.0, SVG Export Plug-In . SVG Version: 6.00 Build 0)  -->
<!DOCTYPE svg PUBLIC "-//W3C//DTD SVG 1.1//EN" "http://www.w3.org/Graphics/SVG/1.1/DTD/svg11.dtd">
<svg version="1.1" id="Layer_1" xmlns="http://www.w3.org/2000/svg" xmlns:xlink="http://www.w3.org/1999/xlink" x="0px" y="0px"
	 width="120px" height="200px" viewBox="0 0 120 200" enable-background="new 0 0 120 200" xml:space="preserve">
<path fill="#FFFFFF" d="M120,191c0,4.971-4.029,9-9,9H9c-4.971,0-9-4.029-9-9V9c0-4.971,4.029-9,9-9h102c4.971,0,9,4.029,9,9V191z"
	/>
<path fill="#91BAC1" d="M120,22H0V9c0-4.971,4.029-9,9-9h102c4.971,0,9,4.029,9,9V22z"/>
<g>
	<circle fill="#C9E9F0" cx="50.875" cy="176.375" r="6.469"/>
	<circle fill="#C9E9F0" cx="69.125" cy="176.375" r="6.469"/>
</g>
<g>
	<rect x="15.516" y="56" fill="#F4F4F4" width="29.656" height="29.656"/>
	<rect x="45.172" y="85.172" fill="#F4F4F4" width="29.656" height="29.656"/>
	<rect x="74.465" y="55.879" fill="#F4F4F4" width="29.656" height="29.656"/>
	<rect x="15.516" y="114.828" fill="#F4F4F4" width="29.656" height="29.656"/>
	<rect x="74.828" y="114.828" fill="#F4F4F4" width="29.656" height="29.656"/>
	<rect x="45.172" y="56" fill="#FFFFFF" width="29.656" height="29.656"/>
	<rect x="74.586" y="85.414" fill="#FFFFFF" width="29.656" height="29.656"/>
	<rect x="45.172" y="114.828" fill="#FFFFFF" width="29.656" height="29.656"/>
	<rect x="15.637" y="85.293" fill="#FFFFFF" width="29.656" height="29.656"/>
</g>
<rect x="45.172" y="11" fill="#F4F4F4" width="29.656" height="3"/>
</svg>
