<?xml version="1.0" encoding="utf-8"?>
<!-- Generator: Adobe Illustrator 15.1.0, SVG Export Plug-In . SVG Version: 6.00 Build 0)  -->
<!DOCTYPE svg PUBLIC "-//W3C//DTD SVG 1.1//EN" "http://www.w3.org/Graphics/SVG/1.1/DTD/svg11.dtd">
<svg version="1.1" id="Layer_1" xmlns="http://www.w3.org/2000/svg" xmlns:xlink="http://www.w3.org/1999/xlink" x="0px" y="0px"
	 width="516px" height="328.171px" viewBox="0 0 516 328.171" enable-background="new 0 0 516 328.171" xml:space="preserve">
<path fill="#FFFFFF" d="M516,319.335c0,5.522-4.478,10-10,10H10c-5.523,0-10-4.478-10-10v-309c0-5.523,4.477-10,10-10h496
	c5.522,0,10,4.477,10,10V319.335z"/>
<path opacity="0.89" fill="none" stroke="#F1F2F2" d="M516,57.835"/>
<path opacity="0.89" fill="none" stroke="#F1F2F2" d="M0,57.835"/>
<rect x="111" y="23.335" fill="#F9F9F9" width="345" height="13"/>
<path fill="#9D9DA8" d="M54,328.335H10c-5.523,0-10-4.478-10-10v-308c0-5.523,4.477-10,10-10h44V328.335z"/>
<rect x="115" y="74.335" fill="#CFCEDE" width="79" height="46"/>
<rect x="115" y="153.335" fill="#9D9DA8" width="79" height="45"/>
<rect x="115" y="236.335" fill="#9D9DA8" width="79" height="45"/>
<rect x="247" y="153.335" fill="#9D9DA8" width="78" height="45"/>
<rect x="247" y="236.335" fill="#9D9DA8" width="78" height="45"/>
<rect x="379" y="153.335" fill="#9D9DA8" width="77" height="45"/>
<rect x="379" y="236.335" fill="#9D9DA8" width="77" height="45"/>
<rect x="247" y="74.335" fill="#CFCEDE" width="78" height="46"/>
<rect x="379" y="74.335" fill="#CFCEDE" width="77" height="46"/>
<g>
	<rect x="16" y="25.335" opacity="0.8" fill="#FFFFFF" width="22" height="3"/>
	<rect x="16" y="35.335" opacity="0.8" fill="#FFFFFF" width="22" height="3"/>
	<rect x="16" y="45.335" opacity="0.8" fill="#FFFFFF" width="22" height="3"/>
</g>
<circle opacity="0.8" fill="#FFFFFF" cx="26.5" cy="293.835" r="7.5"/>
</svg>
