<?xml version="1.0" encoding="utf-8"?>
<!-- Generator: Adobe Illustrator 15.1.0, SVG Export Plug-In . SVG Version: 6.00 Build 0)  -->
<!DOCTYPE svg PUBLIC "-//W3C//DTD SVG 1.1//EN" "http://www.w3.org/Graphics/SVG/1.1/DTD/svg11.dtd">
<svg version="1.1" id="Layer_1" xmlns="http://www.w3.org/2000/svg" xmlns:xlink="http://www.w3.org/1999/xlink" x="0px" y="0px"
	 width="120px" height="200px" viewBox="0 0 120 200" enable-background="new 0 0 120 200" xml:space="preserve">
<path fill="#FFFFFF" d="M120,191c0,4.971-4.029,9-9,9H9c-4.971,0-9-4.029-9-9V9c0-4.971,4.029-9,9-9h102c4.971,0,9,4.029,9,9V191z"
	/>
<path fill="#B4D7CF" d="M120,68H0V9c0-4.971,4.029-9,9-9h102c4.971,0,9,4.029,9,9V68z"/>
<rect x="17.602" y="89.25" fill="#E0E0E0" width="12" height="2"/>
<rect x="43.5" y="89.25" fill="#E0E0E0" width="33" height="2"/>
<rect x="17.602" y="118.375" fill="#E0E0E0" width="12" height="2"/>
<rect x="43.5" y="118.375" fill="#E0E0E0" width="33" height="2"/>
<rect x="17.602" y="146.5" fill="#E0E0E0" width="12" height="2"/>
<rect x="43.5" y="146.5" fill="#E0E0E0" width="33" height="2"/>
<rect x="17.602" y="176.625" fill="#E0E0E0" width="12" height="2"/>
<rect x="43.5" y="176.625" fill="#E0E0E0" width="33" height="2"/>
<circle fill="#B4D7CF" cx="97.078" cy="148.5" r="6.469"/>
<circle fill="#B4D7CF" cx="97.078" cy="119.375" r="6.469"/>
<circle fill="#B4D7CF" cx="97.078" cy="90.25" r="6.469"/>
<g>
	<rect x="17.602" y="29.766" fill="#EFEFEF" width="45" height="2"/>
	<rect x="26.102" y="33" fill="#EFEFEF" width="28" height="2"/>
	<circle fill="#EFEFEF" cx="90.93" cy="34" r="12.469"/>
</g>
<circle fill="#B4D7CF" cx="97.078" cy="177.625" r="6.469"/>
</svg>
