<?xml version="1.0" encoding="utf-8"?>
<!-- Generator: Adobe Illustrator 15.1.0, SVG Export Plug-In . SVG Version: 6.00 Build 0)  -->
<!DOCTYPE svg PUBLIC "-//W3C//DTD SVG 1.1//EN" "http://www.w3.org/Graphics/SVG/1.1/DTD/svg11.dtd">
<svg version="1.1" id="Layer_1" xmlns="http://www.w3.org/2000/svg" xmlns:xlink="http://www.w3.org/1999/xlink" x="0px" y="0px"
	 width="84px" height="84px" viewBox="0 0 84 84" enable-background="new 0 0 84 84" xml:space="preserve">
<polygon fill="#3A3A3A" points="1.424,20.583 1.454,20.631 1.454,20.583 "/>
<g>
	<polygon fill="#3F3F3F" points="13.772,72.903 10.355,67.543 6.663,67.543 13.772,78.766 20.558,67.543 16.867,67.543 	"/>
	<polygon fill="#3F3F3F" points="5.065,64.973 13.772,64.977 22.156,64.973 23.831,62.275 13.61,62.275 3.389,62.275 	"/>
</g>
<path fill="#3A3A3A" d="M2.142,10.495l40.345,63.053l40.39-63.095H2.142V10.495z M42.486,61.557L22.291,30.598H32.78l9.706,14.787
	l8.793-14.787h10.489L42.486,61.557z M71.063,16.078l-4.754,7.435l-23.823,0.016l-24.729-0.016l-4.77-7.435H42.03H71.063z"/>
</svg>
