<?xml version="1.0" encoding="utf-8"?>
<!-- Generator: Adobe Illustrator 15.1.0, SVG Export Plug-In . SVG Version: 6.00 Build 0)  -->
<!DOCTYPE svg PUBLIC "-//W3C//DTD SVG 1.1//EN" "http://www.w3.org/Graphics/SVG/1.1/DTD/svg11.dtd">
<svg version="1.1" id="Layer_1" xmlns="http://www.w3.org/2000/svg" xmlns:xlink="http://www.w3.org/1999/xlink" x="0px" y="0px"
	 width="84px" height="84px" viewBox="0 0 84 84" enable-background="new 0 0 84 84" xml:space="preserve">
<g>
	<polygon fill="#DDDDDD" points="36.482,30.761 60.673,30.749 65.507,22.965 36.016,22.965 6.523,22.965 11.359,30.749 	"/>
	<polygon fill="#DDDDDD" points="-4.5,83.104 36.482,83.104 -4.5,17.131 	"/>
	<rect x="-4.5" y="10.416" fill="#DDDDDD" width="81.997" height="6.667"/>
	<polygon fill="#DDDDDD" points="36.482,53.635 26.621,38.166 15.969,38.166 36.482,70.551 56.063,38.166 45.411,38.166 	"/>
	<polygon fill="#DDDDDD" points="77.497,83.104 77.497,17.083 36.482,83.104 	"/>
	<path fill="#3A3A3A" d="M-4.53,17.083l0.03,0.049l40.982,65.972l41.015-66.021H-4.5H-4.53z M36.482,70.551L15.969,38.166h10.652
		l9.861,15.469l8.929-15.469h10.652L36.482,70.551z M36.016,22.965h29.491l-4.834,7.784l-24.191,0.012l-25.123-0.012l-4.836-7.784
		H36.016z"/>
</g>
</svg>
