<?xml version="1.0" encoding="utf-8"?>

<!DOCTYPE svg PUBLIC "-//W3C//DTD SVG 1.1//EN" "http://www.w3.org/Graphics/SVG/1.1/DTD/svg11.dtd">

<svg height="10" width="10" xmlns="http://www.w3.org/2000/svg" xmlns:xlink="http://www.w3.org/1999/xlink" version="1.1">
	<symbol id="slanted" height="270" width="400">
		<polygon fill=""  points="400,0.083 400,270 0,270 0,95.152"/>
	</symbol>
	<symbol id="person" viewBox="0 0 24 24">
	    <path d="M12 12c2.21 0 4-1.79 4-4s-1.79-4-4-4-4 1.79-4 4 1.79 4 4 4zm0 2c-2.67 0-8 1.34-8 4v2h16v-2c0-2.66-5.33-4-8-4z"/>
	    <path d="M0 0h24v24H0z" fill="none"/>
	</symbol>
  <symbol id="logo" viewBox="0 0 84 84">
    <path fill="" d="M0.721,8.854l41.278,66.292l41.28-66.292H0.721z M41.999,22.589v22.968l8.988-15.533h10.721L41.999,62.543
    	L21.353,30.024h10.721l9.925,15.533V22.589l-25.285-0.013l-4.868-7.815H41.53h29.683l-4.867,7.815L41.999,22.589z"/>
  </symbol>
	<symbol id="copy-icon" viewBox="0 0 24 24">
	    <path d="M0 0h24v24H0z" fill="none"/>
	    <path d="M16 1H4c-1.1 0-2 .9-2 2v14h2V3h12V1zm3 4H8c-1.1 0-2 .9-2 2v14c0 1.1.9 2 2 2h11c1.1 0 2-.9 2-2V7c0-1.1-.9-2-2-2zm0 16H8V7h11v14z"/>
	</symbol>
	<symbol id="blue-check" viewBox="0 0 100 100" >
		 <path fill="none" stroke="#5FB7FF" stroke-width="12" stroke-miterlimit="10" d="M5.556 47.807L35.5 77.75l58.416-58.417"/>
	</symbol>
</svg>
